<?xml version="1.0" encoding="utf-8"?>
<svg width="52" height="68" viewBox="1.71 0 162.944 56.432" fill="none" xmlns="http://www.w3.org/2000/svg">
  <path d="M26.0289 0L27.906 1.49091L25.9589 3.05031L24.1256 1.47479L26.0289 0Z" fill="#331B73"/>
  <path d="M17.0197 5.83871L17.1378 5.82663L19.0193 7.36186L17.0984 8.94141C16.8446 8.7762 16.6127 8.51429 16.3765 8.31684L15.1688 7.37394L17.0197 5.83871Z" fill="#331B73"/>
  <path d="M35.117 5.75006L37.1735 7.36992L35.1913 8.87694L35.082 8.9132L33.1305 7.37797L35.117 5.75006Z" fill="#331B73"/>
  <path d="M25.9283 5.66545L26.0246 5.74604L25.9852 11.9232L25.9896 13.7566C25.9896 14.0991 26.0289 14.4779 25.9633 14.8164L18.4767 10.2268L25.9283 5.66545Z" fill="#331B73"/>
  <path d="M25.9283 5.66545L26.0596 5.605L33.7474 10.2228C32.1109 11.351 30.3388 12.3383 28.6324 13.3738L26.9653 14.3852C26.7028 14.5464 26.3877 14.7842 26.0858 14.8688L25.9589 14.8124C26.0246 14.4739 25.9852 14.0951 25.9852 13.7526L25.9808 11.9192L26.0202 5.74201L25.9283 5.66545Z" fill="#5A2E90"/>
  <path d="M36.4996 13.5511L43.5749 17.5967L46.6247 19.3455L47.6836 19.9419C47.8454 20.0346 48.0292 20.1152 48.1474 20.2562L48.1386 20.373C47.4035 20.7317 46.6991 21.2233 45.9902 21.6343L44.1831 22.686C43.6668 22.9801 43.0892 23.2944 42.6429 23.6772L36.4996 20.236V13.5511Z" fill="#331B73"/>
  <path d="M4.01114 20.4657L4.00238 20.3569C4.10302 20.1837 4.44869 20.0346 4.62809 19.9298L6.16391 19.0191L15.7858 13.2046V20.091L11.8959 22.42L10.4126 23.3387C10.15 23.4999 9.87875 23.7014 9.59434 23.8223C9.55059 23.7094 9.50246 23.6691 9.39744 23.6047L5.10065 21.0661C4.80749 20.8928 4.32618 20.5141 4.01114 20.4657Z" fill="#331B73"/>
  <path d="M48.1386 20.3771L48.1342 35.3869L48.1386 39.4848C48.1386 39.775 48.2305 40.6735 48.0817 40.8871C48.003 40.7541 47.7929 40.6735 47.6573 40.597L46.7559 40.0611L42.5904 37.6474C42.7042 37.4822 42.6473 37.0833 42.6473 36.8737L42.6429 23.6812C43.0892 23.2984 43.6624 22.9841 44.1831 22.69L45.9902 21.6383C46.6991 21.2233 47.4035 20.7357 48.1386 20.3771Z" fill="url(#paint0_linear_18_314)"/>
  <path d="M4.01114 20.4657C4.32618 20.5141 4.80749 20.8969 5.10065 21.0621L9.39744 23.6007C9.50246 23.6692 9.55059 23.7054 9.59434 23.8182L9.54621 37.5386C8.96427 37.8529 8.43482 38.2277 7.87038 38.5621L5.18816 40.1779C4.86 40.3794 4.46619 40.5486 4.18616 40.8105L4.05489 40.7219C3.94988 40.2384 4.02864 39.6017 4.02426 39.102L4.01114 20.4657Z" fill="url(#paint1_linear_18_314)"/>
  <path d="M9.54621 37.5386L20.0082 43.7803L21.6534 44.7715C21.7846 44.8481 22.1041 44.977 22.2003 45.0818C22.3053 45.1946 25.5584 47.02 25.6152 47.165C25.7903 48.0515 25.7246 50.7311 25.7246 51.5169C25.7246 52.9876 25.694 52.7579 25.7246 54.3174L4.18616 40.8105C4.46182 40.5527 4.86 40.3794 5.18816 40.1779L7.87038 38.5621C8.43045 38.2236 8.96427 37.8489 9.54621 37.5386Z" fill="#704B9E"/>
  <path d="M46.7647 40.057L42.5992 37.6434L32.0541 43.8004L30.3627 44.7272L25.7246 47.0844C25.5496 48.253 25.7246 47.9911 25.7246 49.1193C25.7246 50.852 25.7203 52.7982 25.7246 54.3375L43.3911 43.6795L46.7734 41.6688C47.1935 41.419 47.7186 41.1813 48.0905 40.8831C48.0117 40.7541 47.8017 40.6735 47.666 40.593L46.7647 40.057Z" fill="#704B9E"/>
  <path d="M23.7994 46.0368L25.7246 48.9783L27.4311 46.2181L25.6152 47.1046L23.7994 46.0368Z" fill="#704B9E"/>
  <path d="M24.937 16.1381L14.0857 9.30809V21.1145L18.4612 18.3946V16.9238L20.5615 18.2535V26.796H12.5761L25.7028 48.1523L25.6152 39.912L19.9708 30.8658H24.937V16.1381Z" fill="#D9D9D9"/>
  <path d="M26.6109 16.2589L37.4623 9.42898L37.4404 20.772L33.0867 18.4349V17.0447L30.9864 18.3744V26.9169H38.9718L25.7028 48.1523L25.6152 39.8918L31.5771 30.9867H26.6109V16.2589Z" fill="#D9D9D9"/>
  <defs>
    <linearGradient id="paint0_linear_18_314" x1="95699.6" y1="71342.1" x2="100106" y2="78763.4" gradientUnits="userSpaceOnUse">
      <stop stop-color="#5A2E90"/>
      <stop offset="1" stop-color="#5A2E90"/>
    </linearGradient>
    <linearGradient id="paint1_linear_18_314" x1="95699.6" y1="71342.1" x2="100106" y2="78763.4" gradientUnits="userSpaceOnUse">
      <stop stop-color="#5A2E90"/>
      <stop offset="1" stop-color="#5A2E90"/>
    </linearGradient>
  </defs>
  <text style="fill: rgb(240, 227, 226); font-family: &quot;Segoe UI&quot;; font-size: 15px; font-weight: 700; white-space: pre;" x="56.147" y="35.534">RanSan Groups</text>
</svg>