<?xml version="1.0" encoding="utf-8"?>
<svg width="52" height="68" viewBox="1.71 0 144.175 56.432" fill="none" xmlns="http://www.w3.org/2000/svg">
  <path d="M26.0289 0L27.906 1.49091L25.9589 3.05031L24.1256 1.47479L26.0289 0Z" fill="#331B73"/>
  <path d="M17.0197 5.83871L17.1378 5.82663L19.0193 7.36186L17.0984 8.94141C16.8446 8.7762 16.6127 8.51429 16.3765 8.31684L15.1688 7.37394L17.0197 5.83871Z" fill="#331B73"/>
  <path d="M35.117 5.75006L37.1735 7.36992L35.1913 8.87694L35.082 8.9132L33.1305 7.37797L35.117 5.75006Z" fill="#331B73"/>
  <path d="M25.9283 5.66545L26.0246 5.74604L25.9852 11.9232L25.9896 13.7566C25.9896 14.0991 26.0289 14.4779 25.9633 14.8164L18.4767 10.2268L25.9283 5.66545Z" fill="#331B73"/>
  <path d="M25.9283 5.66545L26.0596 5.605L33.7474 10.2228C32.1109 11.351 30.3388 12.3383 28.6324 13.3738L26.9653 14.3852C26.7028 14.5464 26.3877 14.7842 26.0858 14.8688L25.9589 14.8124C26.0246 14.4739 25.9852 14.0951 25.9852 13.7526L25.9808 11.9192L26.0202 5.74201L25.9283 5.66545Z" fill="#5A2E90"/>
  <path d="M36.4996 13.5511L43.5749 17.5967L46.6247 19.3455L47.6836 19.9419C47.8454 20.0346 48.0292 20.1152 48.1474 20.2562L48.1386 20.373C47.4035 20.7317 46.6991 21.2233 45.9902 21.6343L44.1831 22.686C43.6668 22.9801 43.0892 23.2944 42.6429 23.6772L36.4996 20.236V13.5511Z" fill="#331B73"/>
  <path d="M4.01114 20.4657L4.00238 20.3569C4.10302 20.1837 4.44869 20.0346 4.62809 19.9298L6.16391 19.0191L15.7858 13.2046V20.091L11.8959 22.42L10.4126 23.3387C10.15 23.4999 9.87875 23.7014 9.59434 23.8223C9.55059 23.7094 9.50246 23.6691 9.39744 23.6047L5.10065 21.0661C4.80749 20.8928 4.32618 20.5141 4.01114 20.4657Z" fill="#331B73"/>
  <path d="M48.1386 20.3771L48.1342 35.3869L48.1386 39.4848C48.1386 39.775 48.2305 40.6735 48.0817 40.8871C48.003 40.7541 47.7929 40.6735 47.6573 40.597L46.7559 40.0611L42.5904 37.6474C42.7042 37.4822 42.6473 37.0833 42.6473 36.8737L42.6429 23.6812C43.0892 23.2984 43.6624 22.9841 44.1831 22.69L45.9902 21.6383C46.6991 21.2233 47.4035 20.7357 48.1386 20.3771Z" fill="url(#paint0_linear_18_314)"/>
  <path d="M4.01114 20.4657C4.32618 20.5141 4.80749 20.8969 5.10065 21.0621L9.39744 23.6007C9.50246 23.6692 9.55059 23.7054 9.59434 23.8182L9.54621 37.5386C8.96427 37.8529 8.43482 38.2277 7.87038 38.5621L5.18816 40.1779C4.86 40.3794 4.46619 40.5486 4.18616 40.8105L4.05489 40.7219C3.94988 40.2384 4.02864 39.6017 4.02426 39.102L4.01114 20.4657Z" fill="url(#paint1_linear_18_314)"/>
  <path d="M9.54621 37.5386L20.0082 43.7803L21.6534 44.7715C21.7846 44.8481 22.1041 44.977 22.2003 45.0818C22.3053 45.1946 25.5584 47.02 25.6152 47.165C25.7903 48.0515 25.7246 50.7311 25.7246 51.5169C25.7246 52.9876 25.694 52.7579 25.7246 54.3174L4.18616 40.8105C4.46182 40.5527 4.86 40.3794 5.18816 40.1779L7.87038 38.5621C8.43045 38.2236 8.96427 37.8489 9.54621 37.5386Z" fill="#704B9E"/>
  <path d="M46.7647 40.057L42.5992 37.6434L32.0541 43.8004L30.3627 44.7272L25.7246 47.0844C25.5496 48.253 25.7246 47.9911 25.7246 49.1193C25.7246 50.852 25.7203 52.7982 25.7246 54.3375L43.3911 43.6795L46.7734 41.6688C47.1935 41.419 47.7186 41.1813 48.0905 40.8831C48.0117 40.7541 47.8017 40.6735 47.666 40.593L46.7647 40.057Z" fill="#704B9E"/>
  <path d="M23.7994 46.0368L25.7246 48.9783L27.4311 46.2181L25.6152 47.1046L23.7994 46.0368Z" fill="#704B9E"/>
  <path d="M24.937 16.1381L14.0857 9.30809V21.1145L18.4612 18.3946V16.9238L20.5615 18.2535V26.796H12.5761L25.7028 48.1523L25.6152 39.912L19.9708 30.8658H24.937V16.1381Z" fill="#D9D9D9"/>
  <path d="M26.6109 16.2589L37.4623 9.42898L37.4404 20.772L33.0867 18.4349V17.0447L30.9864 18.3744V26.9169H38.9718L25.7028 48.1523L25.6152 39.8918L31.5771 30.9867H26.6109V16.2589Z" fill="#D9D9D9"/>
  <g>
    <path d="M 56.532 38.866 L 54.539 38.866 L 54.539 26.946 L 58.057 26.946 C 60.272 26.946 61.526 28.354 61.526 30.818 C 61.526 32.354 61.021 33.458 60.013 34.13 L 61.612 38.866 L 59.435 38.866 L 58.07 34.69 L 56.532 34.69 L 56.532 38.866 Z M 56.532 29.266 L 56.532 32.402 L 58.045 32.402 C 58.918 32.402 59.422 31.826 59.422 30.818 C 59.422 29.81 58.943 29.266 58.057 29.266 L 56.532 29.266 Z M 64.392 39.074 C 63.088 39.074 62.277 38.066 62.277 36.498 C 62.277 35.01 63.076 34.098 64.552 33.954 L 66.274 33.778 L 66.274 33.65 C 66.274 32.85 65.905 32.434 65.228 32.434 C 64.429 32.434 63.998 32.834 63.998 33.57 L 62.424 33.57 C 62.424 31.746 63.568 30.546 65.326 30.546 C 67.11 30.546 68.119 31.858 68.119 34.162 L 68.119 38.866 L 66.446 38.866 L 66.323 37.794 C 66.127 38.53 65.315 39.074 64.392 39.074 Z M 65.056 37.234 C 65.781 37.234 66.286 36.77 66.286 35.842 L 66.286 35.41 L 65.326 35.522 C 64.503 35.618 64.206 35.858 64.206 36.386 C 64.206 36.962 64.478 37.234 65.056 37.234 Z M 71.371 38.866 L 69.478 38.866 L 69.478 30.818 L 71.261 30.818 L 71.384 31.65 C 71.766 30.962 72.467 30.546 73.267 30.546 C 74.73 30.546 75.578 31.778 75.578 33.89 L 75.578 38.866 L 73.685 38.866 L 73.685 34.482 C 73.685 33.474 73.255 32.802 72.603 32.802 C 71.851 32.802 71.371 33.458 71.371 34.45 L 71.371 38.866 Z M 76.666 30.402 C 76.666 28.258 78.056 26.722 80.012 26.722 C 81.968 26.722 83.198 28.146 83.198 30.386 L 81.218 30.386 C 81.218 29.554 80.738 29.042 79.988 29.042 C 79.177 29.042 78.659 29.522 78.659 30.306 C 78.659 31.042 78.942 31.394 79.582 31.57 L 80.946 31.938 C 82.571 32.37 83.347 33.378 83.347 35.266 C 83.347 37.57 81.968 39.074 79.877 39.074 C 77.848 39.074 76.531 37.634 76.531 35.394 L 78.511 35.394 C 78.511 36.274 79.004 36.754 79.889 36.754 C 80.787 36.754 81.353 36.29 81.353 35.522 C 81.353 34.866 81.119 34.53 80.517 34.37 L 79.127 34.002 C 77.503 33.57 76.666 32.354 76.666 30.402 Z M 86.29 39.074 C 84.986 39.074 84.175 38.066 84.175 36.498 C 84.175 35.01 84.975 34.098 86.452 33.954 L 88.173 33.778 L 88.173 33.65 C 88.173 32.85 87.804 32.434 87.127 32.434 C 86.328 32.434 85.896 32.834 85.896 33.57 L 84.323 33.57 C 84.323 31.746 85.467 30.546 87.227 30.546 C 89.009 30.546 90.019 31.858 90.019 34.162 L 90.019 38.866 L 88.346 38.866 L 88.222 37.794 C 88.027 38.53 87.213 39.074 86.29 39.074 Z M 86.955 37.234 C 87.682 37.234 88.185 36.77 88.185 35.842 L 88.185 35.41 L 87.227 35.522 C 86.401 35.618 86.107 35.858 86.107 36.386 C 86.107 36.962 86.377 37.234 86.955 37.234 Z M 93.271 38.866 L 91.376 38.866 L 91.376 30.818 L 93.161 30.818 L 93.283 31.65 C 93.665 30.962 94.365 30.546 95.165 30.546 C 96.629 30.546 97.478 31.778 97.478 33.89 L 97.478 38.866 L 95.583 38.866 L 95.583 34.482 C 95.583 33.474 95.153 32.802 94.501 32.802 C 93.75 32.802 93.271 33.458 93.271 34.45 L 93.271 38.866 Z M 106.421 29.202 C 104.772 29.202 103.924 30.706 103.924 33.01 C 103.924 35.41 104.957 36.61 106.408 36.61 C 107.909 36.61 108.574 35.538 108.659 34.306 L 106.248 34.306 L 106.248 32.018 L 110.529 32.018 L 110.529 38.866 L 108.819 38.866 L 108.709 37.778 C 108.216 38.53 107.233 39.042 106.15 39.042 C 103.604 39.042 101.82 36.594 101.82 32.93 C 101.82 29.346 103.653 26.754 106.47 26.754 C 108.648 26.754 110.319 28.434 110.529 31.01 L 108.437 31.01 C 108.204 29.746 107.368 29.202 106.421 29.202 Z M 116.173 30.818 L 116.173 33.138 L 115.571 33.138 C 114.488 33.138 113.836 33.778 113.836 35.362 L 113.836 38.866 L 111.941 38.866 L 111.941 30.834 L 113.726 30.834 L 113.824 32.018 C 114.082 31.234 114.623 30.69 115.447 30.69 C 115.669 30.69 115.915 30.738 116.173 30.818 Z M 116.618 34.818 C 116.618 32.274 118.044 30.562 120.013 30.562 C 121.969 30.562 123.397 32.274 123.397 34.818 C 123.397 37.362 121.969 39.058 120.013 39.058 C 118.044 39.058 116.618 37.362 116.618 34.818 Z M 118.525 34.802 C 118.525 36.018 119.127 36.834 120.013 36.834 C 120.887 36.834 121.489 36.018 121.489 34.802 C 121.489 33.602 120.887 32.786 120.013 32.786 C 119.127 32.786 118.525 33.602 118.525 34.802 Z M 128.433 30.818 L 130.328 30.818 L 130.328 38.866 L 128.544 38.866 L 128.421 37.954 C 128.04 38.61 127.278 39.074 126.539 39.074 C 125.136 39.074 124.276 37.842 124.276 35.858 L 124.276 30.818 L 126.17 30.818 L 126.17 34.962 C 126.17 36.29 126.515 36.866 127.29 36.866 C 128.101 36.866 128.433 36.322 128.433 34.994 L 128.433 30.818 Z M 131.75 42.722 L 131.75 30.818 L 133.534 30.818 L 133.631 31.794 C 133.976 31.058 134.752 30.546 135.625 30.546 C 137.335 30.546 138.528 32.114 138.528 34.706 C 138.528 37.25 137.47 39.09 135.637 39.09 C 134.788 39.09 134.001 38.658 133.645 38.05 L 133.645 42.722 L 131.75 42.722 Z M 133.657 34.834 C 133.657 36.034 134.271 36.85 135.157 36.85 C 136.055 36.85 136.621 36.018 136.621 34.834 C 136.621 33.65 136.055 32.818 135.157 32.818 C 134.271 32.818 133.657 33.634 133.657 34.834 Z M 139.176 36.322 L 140.971 36.322 C 140.997 36.882 141.317 37.218 141.894 37.218 C 142.485 37.218 142.755 36.946 142.755 36.53 C 142.755 36.29 142.657 36.018 142.201 35.89 L 141.071 35.57 C 139.939 35.25 139.385 34.61 139.385 33.186 C 139.385 31.522 140.48 30.546 141.955 30.546 C 143.383 30.546 144.379 31.65 144.379 33.266 L 142.583 33.266 C 142.583 32.722 142.325 32.354 141.87 32.354 C 141.44 32.354 141.168 32.642 141.168 33.074 C 141.168 33.458 141.403 33.666 141.833 33.794 L 142.977 34.114 C 143.985 34.402 144.539 35.01 144.539 36.306 C 144.539 38.018 143.42 39.074 141.82 39.074 C 140.197 39.074 139.176 37.938 139.176 36.322 Z" fill="#F0E3E2"/>
  </g>
  <defs>
    <linearGradient id="paint0_linear_18_314" x1="95699.6" y1="71342.1" x2="100106" y2="78763.4" gradientUnits="userSpaceOnUse">
      <stop stop-color="#5A2E90"/>
      <stop offset="1" stop-color="#5A2E90"/>
    </linearGradient>
    <linearGradient id="paint1_linear_18_314" x1="95699.6" y1="71342.1" x2="100106" y2="78763.4" gradientUnits="userSpaceOnUse">
      <stop stop-color="#5A2E90"/>
      <stop offset="1" stop-color="#5A2E90"/>
    </linearGradient>
  </defs>
</svg>