<svg width="52" height="68" viewBox="0 0 52 68" fill="none" xmlns="http://www.w3.org/2000/svg">
<path d="M26.0289 0L27.906 1.49091L25.9589 3.05031L24.1256 1.47479L26.0289 0Z" fill="#331B73"/>
<path d="M17.0197 5.83871L17.1378 5.82663L19.0193 7.36186L17.0984 8.94141C16.8446 8.7762 16.6127 8.51429 16.3765 8.31684L15.1688 7.37394L17.0197 5.83871Z" fill="#331B73"/>
<path d="M35.117 5.75006L37.1735 7.36992L35.1913 8.87694L35.082 8.9132L33.1305 7.37797L35.117 5.75006Z" fill="#331B73"/>
<path d="M25.9283 5.66545L26.0246 5.74604L25.9852 11.9232L25.9896 13.7566C25.9896 14.0991 26.0289 14.4779 25.9633 14.8164L18.4767 10.2268L25.9283 5.66545Z" fill="#331B73"/>
<path d="M25.9283 5.66545L26.0596 5.605L33.7474 10.2228C32.1109 11.351 30.3388 12.3383 28.6324 13.3738L26.9653 14.3852C26.7028 14.5464 26.3877 14.7842 26.0858 14.8688L25.9589 14.8124C26.0246 14.4739 25.9852 14.0951 25.9852 13.7526L25.9808 11.9192L26.0202 5.74201L25.9283 5.66545Z" fill="#5A2E90"/>
<path d="M36.4996 13.5511L43.5749 17.5967L46.6247 19.3455L47.6836 19.9419C47.8454 20.0346 48.0292 20.1152 48.1474 20.2562L48.1386 20.373C47.4035 20.7317 46.6991 21.2233 45.9902 21.6343L44.1831 22.686C43.6668 22.9801 43.0892 23.2944 42.6429 23.6772L36.4996 20.236V13.5511Z" fill="#331B73"/>
<path d="M4.01114 20.4657L4.00238 20.3569C4.10302 20.1837 4.44869 20.0346 4.62809 19.9298L6.16391 19.0191L15.7858 13.2046V20.091L11.8959 22.42L10.4126 23.3387C10.15 23.4999 9.87875 23.7014 9.59434 23.8223C9.55059 23.7094 9.50246 23.6691 9.39744 23.6047L5.10065 21.0661C4.80749 20.8928 4.32618 20.5141 4.01114 20.4657Z" fill="#331B73"/>
<path d="M48.1386 20.3771L48.1342 35.3869L48.1386 39.4848C48.1386 39.775 48.2305 40.6735 48.0817 40.8871C48.003 40.7541 47.7929 40.6735 47.6573 40.597L46.7559 40.0611L42.5904 37.6474C42.7042 37.4822 42.6473 37.0833 42.6473 36.8737L42.6429 23.6812C43.0892 23.2984 43.6624 22.9841 44.1831 22.69L45.9902 21.6383C46.6991 21.2233 47.4035 20.7357 48.1386 20.3771Z" fill="url(#paint0_linear_18_314)"/>
<path d="M4.01114 20.4657C4.32618 20.5141 4.80749 20.8969 5.10065 21.0621L9.39744 23.6007C9.50246 23.6692 9.55059 23.7054 9.59434 23.8182L9.54621 37.5386C8.96427 37.8529 8.43482 38.2277 7.87038 38.5621L5.18816 40.1779C4.86 40.3794 4.46619 40.5486 4.18616 40.8105L4.05489 40.7219C3.94988 40.2384 4.02864 39.6017 4.02426 39.102L4.01114 20.4657Z" fill="url(#paint1_linear_18_314)"/>
<path d="M9.54621 37.5386L20.0082 43.7803L21.6534 44.7715C21.7846 44.8481 22.1041 44.977 22.2003 45.0818C22.3053 45.1946 25.5584 47.02 25.6152 47.165C25.7903 48.0515 25.7246 50.7311 25.7246 51.5169C25.7246 52.9876 25.694 52.7579 25.7246 54.3174L4.18616 40.8105C4.46182 40.5527 4.86 40.3794 5.18816 40.1779L7.87038 38.5621C8.43045 38.2236 8.96427 37.8489 9.54621 37.5386Z" fill="#704B9E"/>
<path d="M46.7647 40.057L42.5992 37.6434L32.0541 43.8004L30.3627 44.7272L25.7246 47.0844C25.5496 48.253 25.7246 47.9911 25.7246 49.1193C25.7246 50.852 25.7203 52.7982 25.7246 54.3375L43.3911 43.6795L46.7734 41.6688C47.1935 41.419 47.7186 41.1813 48.0905 40.8831C48.0117 40.7541 47.8017 40.6735 47.666 40.593L46.7647 40.057Z" fill="#704B9E"/>
<path d="M23.7994 46.0368L25.7246 48.9783L27.4311 46.2181L25.6152 47.1046L23.7994 46.0368Z" fill="#704B9E"/>
<path d="M24.937 16.1381L14.0857 9.30809V21.1145L18.4612 18.3946V16.9238L20.5615 18.2535V26.796H12.5761L25.7028 48.1523L25.6152 39.912L19.9708 30.8658H24.937V16.1381Z" fill="#D9D9D9"/>
<path d="M26.6109 16.2589L37.4623 9.42898L37.4404 20.772L33.0867 18.4349V17.0447L30.9864 18.3744V26.9169H38.9718L25.7028 48.1523L25.6152 39.8918L31.5771 30.9867H26.6109V16.2589Z" fill="#D9D9D9"/>
<path d="M1.673 66H0.539V60.82H2.541C3.801 60.82 4.515 61.429 4.515 62.5C4.515 63.172 4.228 63.648 3.654 63.942L4.564 66H3.325L2.548 64.187H1.673V66ZM1.673 61.828V63.193H2.534C3.031 63.193 3.318 62.941 3.318 62.5C3.318 62.066 3.045 61.828 2.541 61.828H1.673ZM6.14562 66.091C5.40362 66.091 4.94162 65.657 4.94162 64.971C4.94162 64.327 5.39662 63.928 6.23662 63.865L7.21662 63.788V63.732C7.21662 63.389 7.00662 63.207 6.62162 63.207C6.16662 63.207 5.92162 63.382 5.92162 63.697H5.02562C5.02562 62.906 5.67662 62.388 6.67762 62.388C7.69262 62.388 8.26662 62.955 8.26662 63.956V66H7.31462L7.24462 65.538C7.13262 65.86 6.67062 66.091 6.14562 66.091ZM6.52362 65.293C6.93662 65.293 7.22362 65.09 7.22362 64.691V64.502L6.67762 64.551C6.20862 64.593 6.04062 64.698 6.04062 64.922C6.04062 65.174 6.19462 65.293 6.52362 65.293ZM10.1178 66H9.03979V62.5H10.0548L10.1248 62.864C10.3418 62.563 10.7408 62.388 11.1958 62.388C12.0288 62.388 12.5118 62.92 12.5118 63.837V66H11.4338V64.096C11.4338 63.655 11.1888 63.368 10.8178 63.368C10.3908 63.368 10.1178 63.648 10.1178 64.082V66ZM13.1309 62.325C13.1309 61.387 13.9219 60.722 15.0349 60.722C16.1479 60.722 16.8479 61.338 16.8479 62.318H15.7209C15.7209 61.954 15.4479 61.73 15.0209 61.73C14.5589 61.73 14.2649 61.94 14.2649 62.283C14.2649 62.598 14.4259 62.752 14.7899 62.829L15.5669 62.99C16.4909 63.179 16.9319 63.62 16.9319 64.439C16.9319 65.44 16.1479 66.091 14.9579 66.091C13.8029 66.091 13.0539 65.468 13.0539 64.495H14.1809C14.1809 64.873 14.4609 65.083 14.9649 65.083C15.4759 65.083 15.7979 64.88 15.7979 64.551C15.7979 64.264 15.6649 64.117 15.3219 64.047L14.5309 63.886C13.6069 63.697 13.1309 63.172 13.1309 62.325ZM18.6075 66.091C17.8655 66.091 17.4035 65.657 17.4035 64.971C17.4035 64.327 17.8585 63.928 18.6985 63.865L19.6785 63.788V63.732C19.6785 63.389 19.4685 63.207 19.0835 63.207C18.6285 63.207 18.3835 63.382 18.3835 63.697H17.4875C17.4875 62.906 18.1385 62.388 19.1395 62.388C20.1545 62.388 20.7285 62.955 20.7285 63.956V66H19.7765L19.7065 65.538C19.5945 65.86 19.1325 66.091 18.6075 66.091ZM18.9855 65.293C19.3985 65.293 19.6855 65.09 19.6855 64.691V64.502L19.1395 64.551C18.6705 64.593 18.5025 64.698 18.5025 64.922C18.5025 65.174 18.6565 65.293 18.9855 65.293ZM22.5797 66H21.5017V62.5H22.5167L22.5867 62.864C22.8037 62.563 23.2027 62.388 23.6577 62.388C24.4907 62.388 24.9737 62.92 24.9737 63.837V66H23.8957V64.096C23.8957 63.655 23.6507 63.368 23.2797 63.368C22.8527 63.368 22.5797 63.648 22.5797 64.082V66ZM30.0634 61.8C29.1254 61.8 28.6424 62.458 28.6424 63.459C28.6424 64.502 29.2304 65.02 30.0564 65.02C30.9104 65.02 31.2884 64.558 31.3374 64.019H29.9654V63.025H32.4014V66H31.4284L31.3654 65.531C31.0854 65.86 30.5254 66.077 29.9094 66.077C28.4604 66.077 27.4454 65.013 27.4454 63.424C27.4454 61.863 28.4884 60.736 30.0914 60.736C31.3304 60.736 32.2824 61.464 32.4014 62.584H31.2114C31.0784 62.038 30.6024 61.8 30.0634 61.8ZM35.6128 62.5V63.515H35.2698C34.6538 63.515 34.2828 63.788 34.2828 64.481V66H33.2048V62.507H34.2198L34.2758 63.025C34.4228 62.682 34.7308 62.451 35.1998 62.451C35.3258 62.451 35.4658 62.465 35.6128 62.5ZM35.8664 64.243C35.8664 63.137 36.6784 62.395 37.7984 62.395C38.9114 62.395 39.7234 63.137 39.7234 64.243C39.7234 65.349 38.9114 66.084 37.7984 66.084C36.6784 66.084 35.8664 65.349 35.8664 64.243ZM36.9514 64.236C36.9514 64.768 37.2944 65.118 37.7984 65.118C38.2954 65.118 38.6384 64.768 38.6384 64.236C38.6384 63.711 38.2954 63.361 37.7984 63.361C37.2944 63.361 36.9514 63.711 36.9514 64.236ZM42.5904 62.5H43.6684V66H42.6534L42.5834 65.608C42.3664 65.895 41.9324 66.091 41.5124 66.091C40.7144 66.091 40.2244 65.559 40.2244 64.698V62.5H41.3024V64.306C41.3024 64.88 41.4984 65.132 41.9394 65.132C42.4014 65.132 42.5904 64.894 42.5904 64.32V62.5ZM44.4773 67.68V62.5H45.4923L45.5483 62.927C45.7443 62.605 46.1853 62.388 46.6823 62.388C47.6553 62.388 48.3343 63.067 48.3343 64.194C48.3343 65.3 47.7323 66.098 46.6893 66.098C46.2063 66.098 45.7583 65.916 45.5553 65.65V67.68H44.4773ZM45.5623 64.25C45.5623 64.775 45.9123 65.125 46.4163 65.125C46.9273 65.125 47.2493 64.768 47.2493 64.25C47.2493 63.732 46.9273 63.375 46.4163 63.375C45.9123 63.375 45.5623 63.725 45.5623 64.25ZM48.7028 64.894H49.7248C49.7388 65.139 49.9208 65.286 50.2498 65.286C50.5858 65.286 50.7398 65.167 50.7398 64.985C50.7398 64.88 50.6838 64.768 50.4248 64.712L49.7808 64.572C49.1368 64.432 48.8218 64.152 48.8218 63.536C48.8218 62.808 49.4448 62.388 50.2848 62.388C51.0968 62.388 51.6638 62.864 51.6638 63.571H50.6418C50.6418 63.333 50.4948 63.172 50.2358 63.172C49.9908 63.172 49.8368 63.298 49.8368 63.487C49.8368 63.648 49.9698 63.739 50.2148 63.795L50.8658 63.935C51.4398 64.061 51.7548 64.327 51.7548 64.887C51.7548 65.636 51.1178 66.091 50.2078 66.091C49.2838 66.091 48.7028 65.601 48.7028 64.894Z" fill="#F0E3E2"/>
<defs>
<linearGradient id="paint0_linear_18_314" x1="95699.6" y1="71342.1" x2="100106" y2="78763.4" gradientUnits="userSpaceOnUse">
<stop stop-color="#5A2E90"/>
<stop offset="1" stop-color="#5A2E90"/>
</linearGradient>
<linearGradient id="paint1_linear_18_314" x1="95699.6" y1="71342.1" x2="100106" y2="78763.4" gradientUnits="userSpaceOnUse">
<stop stop-color="#5A2E90"/>
<stop offset="1" stop-color="#5A2E90"/>
</linearGradient>
</defs>
</svg>
